<svg xmlns="http://www.w3.org/2000/svg" fill="none" viewBox="0 0 227 72" id="logo-colored"><g clip-path="url(#dla)"><path d="M38.834 70.887H56.42c2.019-7.18 3.498-22.592 5.634-45.886-2.62 7.292-8.649 15.468-8.649 15.468s-5.645 21.208-14.572 30.418Z" fill="#2F4F8D"/><path d="M67.511 0c.006 4.26-1.824 15.179-3.364 18.927l-3.087 51.96h6.557L67.511 0Z" fill="#C12225"/><path d="M80.387 25.552h5.99v.64c-.467.027-.812.055-1.04.088-.228.034-.44.123-.645.273-.206.145-.311.373-.311.678v.562c.372-.211.778-.35 1.229-.417.45-.067.784-.1 1.001-.1.6 0 1.168.106 1.707.317a4.141 4.141 0 0 1 2.342 2.258c.228.529.34 1.096.34 1.702a5.23 5.23 0 0 1-.551 2.358 4.463 4.463 0 0 1-1.569 1.77c-.678.444-1.48.667-2.391.667l-.04-.04c-.316 0-.695-.038-1.145-.116-.45-.078-.757-.173-.929-.284v.757c0 .49.072.84.217 1.062a.93.93 0 0 0 .595.417c.25.056.645.095 1.18.117v.64h-5.991v-.64c.545-.022.945-.056 1.196-.117a.939.939 0 0 0 .59-.417c.144-.222.216-.578.216-1.068v-.717c-.172.11-.484.205-.929.283a6.81 6.81 0 0 1-1.145.117l-.078.039c-.907 0-1.702-.223-2.38-.667a4.34 4.34 0 0 1-1.553-1.77 5.329 5.329 0 0 1-.534-2.358c0-.84.195-1.54.59-2.19.39-.652.923-1.163 1.596-1.53a4.526 4.526 0 0 1 2.203-.551c.879 0 1.624.172 2.236.517 0-.017 0-.039-.017-.061l-.022-.056c-.017-.634-.172-1.04-.473-1.218-.3-.172-.795-.272-1.485-.294v-.651Zm1.997 3.037c-.39-.323-.951-.484-1.674-.484-.39 0-.79.067-1.196.2-.695.295-1.18.69-1.446 1.18-.267.489-.412 1.212-.434 2.174a.231.231 0 0 1-.022.083.382.382 0 0 0-.017.078c0 .645.1 1.246.3 1.808.2.556.495 1.007.885 1.357.389.35.845.528 1.368.55.028.006.072.017.145.023.072.01.155.017.255.017.785 0 1.397-.117 1.836-.357V28.59Zm1.997 6.58c.439.239 1.034.361 1.79.361.1 0 .19 0 .273-.017.084-.016.134-.016.167-.022.784-.044 1.402-.417 1.846-1.129.446-.712.668-1.574.668-2.58v-.162c-.017-.662-.083-1.196-.195-1.608a2.388 2.388 0 0 0-.567-1.023c-.267-.273-.634-.512-1.107-.717a3.99 3.99 0 0 0-1.24-.2c-.695 0-1.24.16-1.63.478v6.624l-.005-.006ZM102.057 29.028l-6.619 7.58c0 .49.072.84.217 1.063a.93.93 0 0 0 .595.417c.25.056.645.095 1.18.117v.64h-5.991v-.64c.545-.022.946-.055 1.196-.117a.919.919 0 0 0 .59-.417c.144-.222.216-.578.216-1.068V27.75c0-.49-.072-.84-.222-1.063a.94.94 0 0 0-.6-.417c-.251-.055-.646-.094-1.18-.117v-.64h5.99v.64c-.667 0-1.184.095-1.552.278a.71.71 0 0 0-.361.479c-.05.217-.078.5-.078.84v7.659l6.619-7.66c0-.456-.072-.8-.217-1.023a1.016 1.016 0 0 0-.617-.445c-.267-.072-.651-.111-1.157-.128v-.64h5.99v.64c-.701 0-1.218.095-1.557.278a.71.71 0 0 0-.362.479c-.05.217-.078.5-.078.84v8.854c0 .506.078.868.234 1.09a.923.923 0 0 0 .6.407c.245.044.634.077 1.163.1v.64h-5.99v-.64c.517-.017.906-.056 1.168-.128a.982.982 0 0 0 .606-.44c.145-.222.217-.567.217-1.034v-7.581.01ZM117.263 32.22h-6.619v4.389c0 .49.073.84.217 1.062a.931.931 0 0 0 .595.417c.251.056.646.095 1.18.117v.64h-5.991v-.64c.545-.022.946-.055 1.196-.117a.921.921 0 0 0 .59-.417c.144-.222.217-.578.217-1.068V27.75c0-.49-.073-.84-.223-1.063a.94.94 0 0 0-.601-.417c-.25-.055-.645-.094-1.179-.117v-.64h5.991v.64c-.668 0-1.185.095-1.552.278a.712.712 0 0 0-.362.479c-.05.217-.078.5-.078.84v3.632h6.619v-3.632c0-.456-.072-.801-.217-1.024a1.01 1.01 0 0 0-.617-.445c-.267-.072-.651-.111-1.157-.128v-.64h5.985v.64c-.701 0-1.218.095-1.558.278a.708.708 0 0 0-.361.479c-.056.217-.078.5-.078.84v8.854c0 .506.078.868.233 1.09a.925.925 0 0 0 .601.407c.245.044.634.077 1.163.1v.64h-5.985v-.64c.517-.017.907-.056 1.168-.128a.982.982 0 0 0 .606-.44c.145-.222.212-.567.212-1.034v-4.389l.005.011ZM129.2 25.318l5.028 11.575c.206.456.45.79.734 1.001.284.211.662.312 1.14.312v.64h-5.512v-.64h.445c.768 0 1.157-.2 1.157-.601 0-.167-.055-.406-.161-.718l-1.079-2.558h-5.306l-1.04 2.558c-.106.262-.162.445-.162.556 0 .507.412.763 1.235.763h.44v.64h-4.628v-.64c.612 0 1.073-.09 1.396-.268.323-.178.584-.528.795-1.045l4.789-11.575h.729Zm1.357 8.182-1.713-4.227c-.317-.834-.506-1.368-.562-1.596-.044.089-.1.25-.161.483l-2.153 5.346h4.589V33.5ZM147.07 32.22h-6.619v4.389c0 .49.072.84.217 1.062a.931.931 0 0 0 .595.417c.25.056.645.095 1.179.117v.64h-5.99v-.64c.545-.022.945-.055 1.196-.117a.917.917 0 0 0 .589-.417c.145-.222.217-.578.217-1.068V27.75c0-.49-.072-.84-.222-1.063a.94.94 0 0 0-.601-.417c-.25-.055-.645-.094-1.179-.117v-.64h5.99v.64c-.667 0-1.185.095-1.552.278a.708.708 0 0 0-.361.479c-.05.217-.078.5-.078.84v3.632h6.619v-3.632c0-.456-.073-.801-.217-1.024a1.015 1.015 0 0 0-.618-.445c-.267-.072-.65-.111-1.156-.128v-.64h5.984v.64c-.701 0-1.218.095-1.557.278a.712.712 0 0 0-.362.479c-.055.217-.077.5-.077.84v8.854c0 .506.077.868.233 1.09a.925.925 0 0 0 .601.407c.245.044.634.077 1.162.1v.64h-5.984v-.64c.517-.017.906-.056 1.168-.128a.982.982 0 0 0 .606-.44c.144-.222.211-.567.211-1.034v-4.389l.006.011ZM164.435 25.552l.2 4.788h-.639c-.212-.873-.518-1.635-.918-2.297a4.443 4.443 0 0 0-1.569-1.563c-.645-.378-1.412-.573-2.302-.573-1.035 0-1.897.3-2.581.902-.684.6-1.185 1.368-1.496 2.302a8.974 8.974 0 0 0-.473 2.904c0 1.084.172 2.096.528 3.042.351.946.901 1.708 1.647 2.286.745.578 1.674.868 2.781.868.995 0 1.958-.312 2.875-.935.924-.623 1.574-1.401 1.953-2.341l.717.561a5.792 5.792 0 0 1-1.452 1.986 6.675 6.675 0 0 1-2.158 1.285 7.096 7.096 0 0 1-2.452.445 7.114 7.114 0 0 1-2.709-.512 6.13 6.13 0 0 1-2.136-1.435 6.318 6.318 0 0 1-1.374-2.191 7.586 7.586 0 0 1-.484-2.726c0-.973.162-1.874.484-2.736a7.062 7.062 0 0 1 1.385-2.292 6.376 6.376 0 0 1 2.158-1.557 6.615 6.615 0 0 1 2.72-.562c1.557 0 2.992.45 4.311 1.357.122-.194.267-.523.439-.995h.562l-.017-.011ZM173.134 39.207c-1.313 0-2.509-.3-3.588-.907a6.635 6.635 0 0 1-2.547-2.52c-.618-1.073-.929-2.274-.929-3.598 0-1.324.306-2.542.918-3.61a6.459 6.459 0 0 1 2.536-2.492c1.079-.595 2.28-.89 3.61-.89 1.329 0 2.558.295 3.637.89a6.487 6.487 0 0 1 2.547 2.492c.612 1.068.924 2.27.924 3.61 0 1.34-.312 2.53-.929 3.604a6.592 6.592 0 0 1-2.564 2.514c-1.09.606-2.292.907-3.615.907Zm0-.718c1.156 0 2.091-.295 2.803-.89.712-.595 1.223-1.362 1.529-2.308.306-.945.456-1.98.456-3.104 0-.84-.083-1.63-.244-2.375a6.398 6.398 0 0 0-.796-2.013 4.024 4.024 0 0 0-1.485-1.43c-.623-.355-1.379-.533-2.263-.533-.885 0-1.619.178-2.236.534a4.075 4.075 0 0 0-1.474 1.429 6.608 6.608 0 0 0-.796 2.019 10.82 10.82 0 0 0-.244 2.37c0 1.128.15 2.169.45 3.114.3.946.807 1.713 1.519 2.308.706.59 1.635.885 2.781.885v-.006ZM187.739 31.62a6.058 6.058 0 0 1 2.091.455 3.764 3.764 0 0 1 1.58 1.207c.401.535.606 1.18.606 1.936 0 .718-.178 1.352-.534 1.908a3.476 3.476 0 0 1-1.44 1.274 4.473 4.473 0 0 1-1.98.444h-6.786v-.64c.545-.021.946-.055 1.196-.116a.921.921 0 0 0 .59-.417c.144-.223.211-.578.211-1.068v-8.855c0-.49-.072-.845-.211-1.068a.908.908 0 0 0-.59-.417c-.25-.055-.645-.094-1.196-.117v-.64h6.463c.612 0 1.196.112 1.741.335.545.222.985.556 1.318 1 .334.446.495.985.495 1.62 0 .973-.328 1.707-.99 2.202-.662.495-1.513.812-2.569.95l.005.006Zm-2.469-.24c.862 0 1.551-.05 2.069-.144a2.16 2.16 0 0 0 1.268-.707c.328-.372.489-.956.489-1.74 0-.863-.167-1.514-.5-1.947-.334-.434-.912-.651-1.736-.651h-1.59v5.19Zm0 .64v4.589c0 .595.166.995.495 1.206.328.212.817.312 1.457.312.895 0 1.541-.295 1.93-.884.389-.59.584-1.358.584-2.314 0-.901-.195-1.569-.59-1.991a2.5 2.5 0 0 0-1.474-.779c-.589-.095-1.39-.145-2.402-.145v.006ZM197.356 27.755v3.632c.551 0 .94 0 1.168-.006.228 0 .412-.011.545-.022.134-.011.239-.011.317-.011.957 0 1.791.16 2.497.478.707.322 1.246.773 1.625 1.357.378.584.578 1.263.589 2.036 0 .717-.178 1.351-.534 1.907a3.476 3.476 0 0 1-1.44 1.274 4.48 4.48 0 0 1-1.98.445h-6.786V38.2c.545-.022.945-.056 1.196-.117a.916.916 0 0 0 .589-.417c.145-.222.217-.578.217-1.068v-8.855c0-.489-.072-.845-.217-1.067a.917.917 0 0 0-.589-.418c-.251-.055-.651-.094-1.196-.116v-.64h5.99v.64c-.667 0-1.173.094-1.513.278a.713.713 0 0 0-.395.478 3.53 3.53 0 0 0-.083.84v.017Zm0 4.305v4.544c0 .595.167.995.495 1.207.328.211.818.311 1.457.311.896 0 1.541-.295 1.93-.879.39-.59.584-1.357.584-2.314 0-.845-.167-1.473-.5-1.896a2.177 2.177 0 0 0-1.296-.801c-.534-.117-1.207-.172-2.03-.172h-.64Zm13.404 6.824h-5.984v-.645c.545-.017.94-.056 1.19-.117a.921.921 0 0 0 .59-.417c.144-.222.211-.578.211-1.068v-8.855c0-.49-.072-.84-.211-1.062a.921.921 0 0 0-.59-.417c-.25-.056-.645-.095-1.19-.117v-.64h5.984v.64c-.667 0-1.173.095-1.512.278a.722.722 0 0 0-.401.49 3.43 3.43 0 0 0-.083.834v8.855c0 .49.072.84.222 1.062a.94.94 0 0 0 .601.417c.25.056.645.095 1.179.117v.645h-.006ZM222.135 29.028l-6.619 7.58c0 .49.073.84.217 1.063a.93.93 0 0 0 .595.417c.251.056.646.095 1.18.117v.64h-5.991v-.64c.545-.022.946-.056 1.196-.117a.92.92 0 0 0 .59-.417c.144-.222.217-.578.217-1.068v-8.855c0-.49-.073-.84-.223-1.062a.94.94 0 0 0-.601-.417c-.25-.056-.645-.095-1.179-.117v-.64h5.991v.64c-.668 0-1.185.095-1.552.278a.713.713 0 0 0-.362.479c-.05.216-.078.5-.078.84v7.658l6.619-7.659c0-.456-.072-.8-.217-1.023a1.01 1.01 0 0 0-.617-.445c-.267-.072-.651-.111-1.157-.128v-.64h5.985v.64c-.701 0-1.218.095-1.558.278a.709.709 0 0 0-.361.479c-.056.216-.078.5-.078.84v8.854c0 .506.078.868.234 1.09a.923.923 0 0 0 .6.406c.245.045.634.078 1.163.1v.64h-5.985v-.64c.517-.016.907-.055 1.168-.128a.982.982 0 0 0 .606-.439c.145-.222.212-.567.212-1.035v-7.58l.005.01Zm-3.031-5.985c.4 0 .79-.056 1.179-.172.384-.117.578-.312.578-.59-.077-.4-.116-.668-.116-.801a.95.95 0 0 1 .278-.673c.189-.195.411-.3.673-.323h.083c.167 0 .345.04.523.117.178.078.312.156.395.24.183.216.278.511.278.884-.011.556-.25.984-.706 1.296a3.99 3.99 0 0 1-1.569.623 9.269 9.269 0 0 1-1.629.155c-.496 0-1.024-.05-1.608-.155a3.906 3.906 0 0 1-1.541-.623c-.445-.306-.678-.74-.689-1.296 0-.373.094-.662.283-.885.24-.239.529-.356.879-.356h.117c.267.023.495.128.679.317a.93.93 0 0 1 .278.673c0 .162-.039.429-.123.801 0 .278.195.473.579.59.384.117.778.172 1.179.172v.006ZM83.096 58.696s-.139.245-.45.734c-.173.19-.345.35-.529.49-.183.139-.317.233-.411.295-.284.139-.64.205-1.063.205-.422 0-.778-.094-1.062-.289-.078-.039-.195-.172-.345-.4a1.267 1.267 0 0 1-.228-.707c0-.244.095-.49.284-.734.161-.245.412-.367.74-.367.105 0 .272.028.49.078-.018 0 .071.072.266.222.195.15.395.223.59.223.039 0 .094.006.178.022a.985.985 0 0 0 .194.022c.195 0 .367-.083.529-.25.105-.128.25-.34.434-.64.183-.3.283-.483.305-.545l-5.562-8.432c-.178-.21-.339-.406-.489-.584a3.786 3.786 0 0 0-.406-.422 1.385 1.385 0 0 0-.434-.25 1.719 1.719 0 0 0-.595-.09v-.656h5.645v.656h-.45c-.79 0-1.19.206-1.19.612 0 .156.055.4.166.734l4.339 6.714 3.27-6.714c.112-.283.167-.489.167-.611 0-.3-.122-.501-.367-.596-.245-.094-.562-.139-.94-.139h-.412v-.656h4.706v.656h-.167c-.962.112-1.646.562-2.047 1.346l-5.156 10.068v.005ZM101.757 53.495h-6.792v4.5c0 .5.073.862.223 1.09.15.228.356.373.612.428.256.056.662.1 1.207.117v.656h-6.14v-.656c.561-.022.967-.061 1.223-.117a.948.948 0 0 0 .606-.428c.145-.228.223-.59.223-1.096v-9.082c0-.501-.078-.863-.228-1.09a.958.958 0 0 0-.612-.429c-.256-.056-.662-.1-1.207-.117v-.656h6.14v.656c-.684 0-1.212.095-1.59.284a.706.706 0 0 0-.368.49c-.055.222-.078.511-.078.861v3.721h6.792v-3.72c0-.468-.073-.818-.223-1.052a1.04 1.04 0 0 0-.634-.456c-.272-.072-.667-.117-1.184-.133v-.657h6.14v.657c-.718 0-1.252.094-1.596.283a.705.705 0 0 0-.367.49c-.056.222-.078.511-.078.862v9.083c0 .517.078.89.239 1.118a.976.976 0 0 0 .612.417c.25.05.645.083 1.195.1v.656h-6.14v-.656c.528-.017.929-.061 1.201-.128.273-.072.479-.222.623-.45.145-.229.223-.585.223-1.057v-4.5l-.022.011ZM117.347 50.225l-6.791 7.77c0 .5.072.862.222 1.09a.96.96 0 0 0 .612.428c.256.056.662.1 1.207.117v.656h-6.14v-.656c.562-.022.968-.061 1.223-.117a.948.948 0 0 0 .607-.428c.144-.228.222-.59.222-1.096v-9.082c0-.501-.078-.863-.228-1.09a.958.958 0 0 0-.612-.429c-.256-.056-.662-.1-1.207-.117v-.656h6.141v.656c-.684 0-1.213.095-1.591.284a.73.73 0 0 0-.373.49c-.055.222-.077.511-.077.861v7.854l6.791-7.853c0-.468-.073-.818-.223-1.052a1.04 1.04 0 0 0-.634-.456c-.272-.072-.667-.117-1.185-.133v-.657h6.141v.657c-.718 0-1.252.094-1.596.283a.73.73 0 0 0-.373.49c-.056.222-.078.511-.078.862v9.083c0 .517.078.89.239 1.118a.976.976 0 0 0 .618.417c.25.05.645.083 1.195.1v.656h-6.14v-.656c.528-.017.929-.061 1.201-.128.273-.072.479-.222.623-.45.145-.229.223-.585.223-1.057v-7.77l-.017.01ZM128.677 52.884c.762.033 1.479.189 2.141.467.662.278 1.207.69 1.618 1.235.412.545.618 1.206.618 1.985 0 .734-.184 1.39-.545 1.958a3.576 3.576 0 0 1-1.474 1.307 4.59 4.59 0 0 1-2.03.456h-6.958v-.656c.561-.022.967-.061 1.223-.117a.951.951 0 0 0 .607-.428c.15-.228.222-.59.222-1.096v-9.083c0-.5-.072-.867-.222-1.095a.94.94 0 0 0-.607-.429c-.256-.055-.667-.1-1.223-.116v-.657h6.63a4.7 4.7 0 0 1 1.785.34 3.055 3.055 0 0 1 1.351 1.029c.34.456.512 1.012.512 1.663 0 1-.339 1.752-1.012 2.258s-1.552.828-2.631.973l-.005.006Zm-2.531-.245c.884 0 1.591-.05 2.125-.15.533-.1.967-.34 1.301-.723.334-.384.501-.98.501-1.786 0-.884-.173-1.552-.512-1.996-.339-.446-.935-.668-1.78-.668h-1.635v5.323Zm0 .656v4.706c0 .611.167 1.023.506 1.234.339.217.834.323 1.496.323.918 0 1.58-.3 1.98-.907.401-.6.601-1.396.601-2.375 0-.923-.2-1.607-.606-2.04a2.573 2.573 0 0 0-1.513-.802c-.606-.1-1.424-.15-2.464-.15v.011ZM144.517 46.62l.368 3.36h-.612c-.2-.835-.512-1.491-.929-1.958-.423-.467-1.024-.706-1.808-.706h-2.987v5.361h1.308c1.206 0 1.835-.628 1.885-1.885h.656v4.622h-.656c-.089-.74-.245-1.263-.473-1.558-.222-.294-.695-.445-1.412-.445h-1.308v4.378c0 .678.184 1.145.557 1.407.372.261.906.395 1.613.395 1.034 0 1.852-.1 2.464-.3.611-.2 1.123-.662 1.546-1.38.378-.762.578-1.374.612-1.846h.611l-.283 4.216h-11.213v-.657c.562-.022.968-.061 1.223-.117a.948.948 0 0 0 .607-.428c.15-.228.222-.59.222-1.096v-9.082c0-.501-.072-.868-.222-1.096a.941.941 0 0 0-.607-.428c-.255-.056-.667-.1-1.223-.117v-.657h10.073l-.012.017ZM150.53 53.785v4.21c0 .5.072.862.222 1.09.15.228.356.373.612.428.256.056.662.095 1.207.117v.657h-6.141v-.657c.562-.022.968-.06 1.224-.117a.946.946 0 0 0 .606-.428c.15-.228.223-.59.223-1.096v-9.082c0-.5-.078-.862-.228-1.09a.958.958 0 0 0-.612-.429c-.256-.055-.662-.1-1.207-.116v-.657h4.789c1.19 0 2.191.067 2.992.195a3.782 3.782 0 0 1 2.053.995c.561.535.845 1.352.845 2.453 0 .634-.15 1.224-.45 1.764-.301.539-.724.962-1.269 1.262-.623.328-1.59.495-2.903.495h-1.963v.006Zm0-.612h1.551c.901 0 1.597-.267 2.086-.807.49-.54.734-1.262.734-2.18 0-.723-.111-1.307-.339-1.746a2.007 2.007 0 0 0-1.023-.951c-.456-.195-1.04-.29-1.752-.29-.156 0-.373.006-.651.023-.278.01-.484.022-.618.022v5.934l.012-.005ZM170.664 46.665l.206 4.911h-.656c-.217-.895-.529-1.68-.94-2.358a4.575 4.575 0 0 0-1.608-1.602c-.662-.39-1.446-.584-2.364-.584-1.062 0-1.946.306-2.642.923-.7.612-1.212 1.402-1.535 2.364a9.282 9.282 0 0 0-.484 2.976c0 1.107.178 2.147.54 3.12.362.968.923 1.752 1.685 2.342.762.59 1.713.884 2.848.884 1.023 0 2.008-.317 2.948-.957.94-.64 1.613-1.44 2.002-2.402l.734.573a5.94 5.94 0 0 1-1.49 2.035 6.766 6.766 0 0 1-2.214 1.318 7.35 7.35 0 0 1-2.514.456c-1.001 0-1.924-.172-2.775-.522a6.376 6.376 0 0 1-2.192-1.474 6.595 6.595 0 0 1-1.413-2.247 7.717 7.717 0 0 1-.495-2.792c0-.996.167-1.92.495-2.81a7.237 7.237 0 0 1 1.419-2.352 6.592 6.592 0 0 1 2.208-1.596c.856-.384 1.785-.573 2.792-.573 1.596 0 3.07.462 4.422 1.39.122-.2.272-.54.45-1.018h.573v-.005ZM182.767 50.225l-6.791 7.77c0 .5.072.862.222 1.09a.96.96 0 0 0 .612.428c.256.056.662.1 1.207.117v.656h-6.14v-.656c.561-.022.968-.061 1.223-.117a.95.95 0 0 0 .607-.428c.15-.228.222-.59.222-1.096v-9.082c0-.501-.078-.863-.228-1.09a.958.958 0 0 0-.612-.429c-.256-.056-.662-.1-1.207-.117v-.656h6.141v.656c-.684 0-1.213.095-1.591.284a.73.73 0 0 0-.373.49 3.737 3.737 0 0 0-.078.861v7.854l6.792-7.853c0-.468-.073-.818-.223-1.052a1.04 1.04 0 0 0-.634-.456c-.272-.072-.667-.117-1.185-.133v-.657h6.141v.657c-.718 0-1.252.094-1.596.283a.73.73 0 0 0-.373.49c-.056.222-.078.511-.078.862v9.083c0 .517.078.89.239 1.118a.979.979 0 0 0 .612.417c.25.05.645.083 1.196.1v.656h-6.141v-.656c.529-.017.929-.061 1.202-.128.267-.072.478-.222.623-.45.144-.229.222-.585.222-1.057v-7.77l-.011.01ZM196.805 60.292h-6.096v-.657c.557-.016.963-.055 1.23-.122a.961.961 0 0 0 .606-.44c.139-.227.211-.583.211-1.078v-10.68h-2.297c-.79 0-1.379.223-1.763.668-.384.445-.695 1.096-.934 1.952h-.657l.367-3.309h12.565l.367 3.31h-.612a8.694 8.694 0 0 0-.562-1.397 2.295 2.295 0 0 0-.823-.89c-.35-.222-.801-.333-1.357-.333h-2.286v10.679c0 .495.078.856.234 1.09a.99.99 0 0 0 .617.434c.256.055.656.1 1.19.117v.656ZM210.8 46.62l.367 3.36h-.612c-.2-.835-.512-1.491-.929-1.958-.423-.467-1.023-.706-1.808-.706h-2.986v5.361h1.307c1.207 0 1.835-.628 1.885-1.885h.657v4.622h-.657c-.089-.74-.25-1.263-.473-1.558-.222-.294-.695-.445-1.412-.445h-1.307v4.378c0 .678.183 1.145.556 1.407.367.261.906.395 1.613.395 1.034 0 1.852-.1 2.464-.3.612-.2 1.123-.662 1.546-1.38.378-.762.578-1.374.612-1.846h.612l-.284 4.216h-11.213v-.657c.562-.022.968-.061 1.224-.117a.946.946 0 0 0 .606-.428c.15-.228.222-.59.222-1.096v-9.082c0-.501-.072-.868-.222-1.096a.954.954 0 0 0-.606-.428c-.256-.056-.662-.1-1.224-.117v-.657h10.073l-.011.017ZM222.051 60.292h-6.096v-.657c.557-.016.963-.055 1.23-.122a.961.961 0 0 0 .606-.44c.139-.227.211-.583.211-1.078v-10.68h-2.297c-.79 0-1.379.223-1.763.668-.384.445-.695 1.096-.934 1.952h-.657l.367-3.309h12.565l.367 3.31h-.612a8.694 8.694 0 0 0-.562-1.397 2.295 2.295 0 0 0-.823-.89c-.35-.222-.801-.333-1.357-.333h-2.286v10.679c0 .495.078.856.234 1.09a.992.992 0 0 0 .617.434c.256.055.656.1 1.19.117v.656ZM79.28 70.882h-.6v-4.05h-2.236v4.05h-.6v-4.533h3.437v4.533ZM80.966 69.107v1.775h-.601v-4.533h1.674c.495 0 .885.128 1.168.378.284.25.423.59.423 1.007 0 .439-.14.778-.412 1.017-.272.24-.667.356-1.184.356h-1.068Zm0-.49h1.073c.317 0 .567-.077.734-.227.173-.15.256-.367.256-.656 0-.29-.083-.49-.256-.651-.172-.162-.406-.245-.7-.25h-1.107v1.785ZM87.25 66.349h.601v4.533h-.6v-3.493l-2.237 3.493h-.6v-4.533h.6v3.493l2.236-3.493ZM93.981 70.882h-.6v-4.05h-2.237v4.05h-.6v-4.533h3.437v4.533ZM95.666 69.107v1.775h-.6v-4.533h1.673c.495 0 .885.128 1.168.378.284.25.423.59.423 1.007 0 .439-.139.778-.412 1.017-.272.24-.667.356-1.184.356h-1.068Zm0-.49h1.073c.317 0 .568-.077.734-.227.173-.15.256-.367.256-.656 0-.29-.083-.49-.255-.651-.173-.162-.407-.245-.701-.25h-1.107v1.785ZM101.167 69.697h-1.902l-.428 1.185h-.618l1.73-4.533h.523l1.735 4.533h-.611l-.434-1.185h.005Zm-1.718-.49h1.54l-.773-2.119-.767 2.12ZM102.824 70.882v-4.533h1.485c.489 0 .862.1 1.112.305.251.206.373.507.373.902 0 .21-.061.4-.178.561a1.18 1.18 0 0 1-.495.379c.245.066.439.2.579.389.144.195.211.423.211.69 0 .406-.134.728-.395.956-.261.234-.634.35-1.118.35h-1.574Zm.601-2.603h.901c.261 0 .472-.067.628-.195a.668.668 0 0 0 .234-.534c0-.25-.072-.434-.217-.545-.145-.111-.367-.172-.662-.172h-.884v1.446Zm0 .478v1.63h.99c.278 0 .5-.073.656-.217.161-.145.239-.345.239-.595 0-.546-.295-.818-.89-.818h-.995ZM109.661 66.349h.6v4.533h-.6v-3.493l-2.236 3.493h-.601v-4.533h.601v3.493l2.236-3.493ZM114.388 66.838h-1.457v4.05h-.595v-4.05h-1.457v-.49h3.509v.49ZM117.625 68.79h-1.964v1.608h2.286v.49h-2.881v-4.534h2.848v.49h-2.253v1.463h1.964v.49-.006ZM122.119 66.35v4.532h-.6v-4.049h-1.625l-.083 1.797c-.033.6-.094 1.056-.183 1.357-.095.306-.229.528-.407.667-.177.145-.417.217-.717.223h-.195v-.49h.123c.194-.022.339-.083.445-.194.105-.112.183-.29.239-.529.055-.245.094-.617.117-1.123l.094-2.197h2.792v.005ZM123.782 68.201h1.129c.473.006.846.128 1.107.368.267.239.401.556.401.967 0 .412-.134.734-.401.98-.267.244-.634.366-1.095.377h-1.736V66.36h.601v1.853l-.006-.012Zm0 .49v1.707h1.096c.295 0 .528-.078.695-.239a.842.842 0 0 0 .251-.634c0-.261-.078-.456-.24-.606-.161-.15-.383-.223-.678-.228h-1.124ZM130.54 69.447c-.055.478-.233.85-.534 1.112-.3.261-.695.39-1.19.39-.534 0-.968-.195-1.29-.58-.323-.383-.484-.895-.484-1.54v-.434c0-.422.072-.79.228-1.112.15-.317.361-.567.639-.734.279-.173.596-.256.957-.256.484 0 .868.133 1.157.406.289.267.462.64.506 1.118h-.601c-.05-.362-.166-.623-.339-.79-.172-.161-.417-.245-.728-.245-.384 0-.685.14-.902.423-.216.284-.322.684-.322 1.207v.44c0 .495.1.884.306 1.173a1 1 0 0 0 .862.434c.334 0 .589-.078.767-.228.178-.15.295-.412.356-.784h.612ZM134.4 66.838h-1.457v4.05h-.595v-4.05h-1.458v-.49h3.51v.49ZM135.073 70.882v-4.533h1.485c.49 0 .862.1 1.112.305.251.206.373.507.373.902a.91.91 0 0 1-.183.561c-.123.162-.284.29-.49.379.245.066.439.2.579.389.139.195.211.423.211.69 0 .406-.134.728-.395.956-.261.234-.634.35-1.118.35h-1.574Zm.601-2.603h.901c.261 0 .472-.067.628-.195a.668.668 0 0 0 .234-.534c0-.25-.072-.434-.217-.545-.145-.111-.367-.172-.662-.172h-.884v1.446Zm0 .478v1.63h.99c.278 0 .5-.073.656-.217.161-.145.239-.345.239-.595 0-.546-.295-.818-.89-.818h-.995ZM141.608 68.79h-1.963v1.608h2.286v.49h-2.881v-4.534h2.848v.49h-2.253v1.463h1.963v.49-.006ZM144.85 69.107v1.775h-.6v-4.533h1.674c.495 0 .884.128 1.168.378.284.25.423.59.423 1.007 0 .439-.139.778-.412 1.017-.278.24-.667.356-1.185.356h-1.068Zm0-.49h1.074c.322 0 .567-.077.734-.227.173-.15.256-.367.256-.656 0-.29-.083-.49-.256-.651-.172-.162-.406-.245-.701-.25h-1.107v1.785ZM151.764 68.763c0 .445-.072.834-.222 1.162-.15.334-.362.584-.634.757a1.768 1.768 0 0 1-.962.261c-.367 0-.673-.089-.951-.261a1.778 1.778 0 0 1-.646-.751 2.586 2.586 0 0 1-.233-1.13v-.327c0-.434.078-.824.228-1.157.15-.334.367-.59.645-.768.278-.178.595-.267.951-.267s.684.09.962.262c.278.178.49.428.64.762.15.333.222.723.222 1.162v.295Zm-.595-.295c0-.54-.105-.951-.322-1.24-.217-.29-.518-.434-.907-.434s-.673.145-.89.434c-.217.289-.328.684-.334 1.196v.333c0 .523.112.93.329 1.23.217.3.522.445.906.445s.684-.14.896-.423c.211-.284.322-.684.328-1.213v-.334l-.006.006ZM155.998 69.447c-.056.478-.234.85-.529 1.112-.3.261-.695.39-1.19.39-.534 0-.968-.195-1.29-.58-.323-.383-.484-.895-.484-1.54v-.434c0-.422.078-.79.228-1.112.15-.317.361-.567.639-.734.278-.173.595-.256.957-.256.484 0 .868.133 1.157.406.289.267.462.64.506 1.118h-.601c-.05-.362-.167-.623-.339-.79-.172-.161-.417-.245-.729-.245-.383 0-.684.14-.901.423-.217.284-.328.684-.328 1.207v.44c0 .495.106.884.306 1.173a1 1 0 0 0 .862.434c.334 0 .59-.078.768-.228.178-.15.295-.412.356-.784h.612ZM160.152 69.447c-.056.478-.234.85-.529 1.112-.3.261-.695.39-1.19.39-.534 0-.968-.195-1.29-.58-.323-.383-.484-.895-.484-1.54v-.434c0-.422.078-.79.228-1.112.15-.317.362-.567.64-.734a1.77 1.77 0 0 1 .956-.256c.484 0 .868.133 1.157.406.289.267.462.64.506 1.118h-.6c-.05-.362-.167-.623-.34-.79-.172-.161-.417-.245-.728-.245-.384 0-.684.14-.901.423-.217.284-.328.684-.328 1.207v.44c0 .495.105.884.305 1.173.206.29.495.434.863.434.333 0 .589-.078.767-.228.178-.15.295-.412.356-.784h.612ZM163.829 66.349h.6v4.533h-.6v-3.493l-2.236 3.493h-.601v-4.533h.601v3.493l2.236-3.493ZM168.373 66.35h.6v4.532h-.6V67.39l-2.236 3.493h-.601V66.35h.601v3.493l2.236-3.493Zm-.167-1.13c0 .25-.084.456-.256.606-.173.156-.395.228-.673.228s-.506-.078-.679-.233a.776.776 0 0 1-.256-.606h.473c0 .144.039.261.117.339a.473.473 0 0 0 .345.122c.15 0 .256-.039.339-.122.083-.084.122-.195.122-.345h.468v.011ZM173.401 69.447c-.056.478-.234.85-.529 1.112-.3.261-.695.39-1.19.39-.534 0-.968-.195-1.29-.58-.323-.383-.484-.895-.484-1.54v-.434c0-.422.078-.79.228-1.112.15-.317.362-.567.64-.734a1.77 1.77 0 0 1 .956-.256c.484 0 .868.133 1.157.406.289.267.462.64.506 1.118h-.6c-.05-.362-.167-.623-.34-.79-.172-.161-.417-.245-.728-.245-.384 0-.684.14-.901.423-.217.284-.328.684-.328 1.207v.44c0 .495.105.884.305 1.173.206.29.495.434.863.434.333 0 .589-.078.767-.228.178-.15.295-.412.356-.784h.612ZM175.391 68.846h-.55v2.036h-.601v-4.533h.601v2.002h.467l1.585-2.002h.745l-1.729 2.197 1.857 2.336h-.734l-1.641-2.036ZM181.705 68.763c0 .445-.072.834-.222 1.162a1.689 1.689 0 0 1-.634.757 1.772 1.772 0 0 1-.963.261c-.367 0-.673-.089-.951-.261a1.783 1.783 0 0 1-.645-.751 2.571 2.571 0 0 1-.234-1.13v-.327c0-.434.078-.824.228-1.157.151-.334.368-.59.646-.768.278-.178.595-.267.951-.267s.684.09.962.262c.278.178.489.428.64.762.15.333.222.723.222 1.162v.295Zm-.595-.295c0-.54-.106-.951-.323-1.24-.217-.29-.517-.434-.906-.434-.39 0-.673.145-.89.434-.217.289-.328.684-.334 1.196v.333c0 .523.111.93.328 1.23.217.3.523.445.907.445s.684-.14.895-.423c.212-.284.323-.684.328-1.213v-.334l-.005.006ZM185.464 66.35h.601v4.532h-.601V67.39l-2.236 3.493h-.6V66.35h.6v3.493l2.236-3.493Zm-.167-1.13c0 .25-.083.456-.255.606-.173.156-.395.228-.673.228-.279 0-.507-.078-.679-.233a.776.776 0 0 1-.256-.606h.473c0 .144.039.261.117.339a.472.472 0 0 0 .345.122c.15 0 .255-.039.339-.122.083-.084.122-.195.122-.345h.467v.011ZM190.971 66.805h.094c.345 0 .656.083.94.239.284.156.501.378.656.65.156.279.234.59.234.93 0 .339-.078.656-.239.94a1.69 1.69 0 0 1-.657.656c-.278.156-.589.239-.928.239h-.112v.612h-.578v-.612h-.089c-.345 0-.662-.078-.946-.24a1.667 1.667 0 0 1-.661-.655 1.883 1.883 0 0 1-.234-.94c0-.35.078-.662.234-.94.155-.279.378-.495.661-.657.284-.161.601-.239.946-.239h.089v-.64h.578v.64l.012.017Zm-.668.472c-.389 0-.701.123-.929.362-.228.24-.339.573-.339.996 0 .422.111.762.339.995.228.24.54.356.935.356h.083v-2.714h-.089v.005Zm.668 0v2.715h.089c.394 0 .706-.123.928-.367.223-.245.334-.579.334-.996 0-.417-.111-.745-.334-.99-.222-.245-.539-.367-.94-.367h-.072l-.005.005ZM196.216 68.79h-1.964v1.608h2.286v.49h-2.881v-4.534h2.848v.49h-2.253v1.463h1.964v.49-.006ZM201.36 71.994h-.595v-1.112h-3.253v1.112h-.601v-1.602h.367c.195-.222.35-.517.467-.884a5.15 5.15 0 0 0 .217-1.218l.1-1.941h2.714v4.043h.59v1.602h-.006Zm-3.398-1.602h2.214v-3.56h-1.535l-.067 1.335c-.028.523-.095.968-.206 1.335-.111.367-.245.662-.406.89ZM204.636 68.79h-1.963v1.608h2.286v.49h-2.881v-4.534h2.848v.49h-2.253v1.463h1.963v.49-.006ZM206.3 69.107v1.775h-.601v-4.533h1.674c.495 0 .885.128 1.168.378.284.25.423.59.423 1.007 0 .439-.139.778-.412 1.017-.278.24-.667.356-1.184.356H206.3Zm0-.49h1.073c.323 0 .567-.077.734-.227.173-.15.256-.367.256-.656 0-.29-.083-.49-.256-.651-.172-.162-.406-.245-.7-.25H206.3v1.785ZM211.8 69.697h-1.902l-.428 1.185h-.618l1.73-4.533h.523l1.735 4.533h-.612l-.433-1.185h.005Zm-1.719-.49h1.541l-.773-2.119-.768 2.12ZM213.474 66.349h.601v4.043h2.236V66.35h.601v4.032h.478l-.056 1.596h-.539v-1.095h-3.315v-4.533h-.006ZM220.984 66.349h.601v4.533h-.601v-3.493l-2.236 3.493h-.601v-4.533h.601v3.493l2.236-3.493ZM225.528 66.349h.6v4.533h-.6v-3.493l-2.236 3.493h-.601v-4.533h.601v3.493l2.236-3.493Z" fill="currentColor"/><path d="M.039 70.56c17.626-2.475 35.374-9.962 48.306-24.256-1.38 5.094-8.888 18.07-16.152 24.256H.039Z" fill="#fff" stroke="#D9DDE4"/><path d="M24.653 65.353v3.248h-.393v-2.835h-.019l-.793.526v-.4l.812-.539h.393ZM26.622 65.309c.133 0 .266.026.4.076.133.05.254.132.364.247.11.114.198.27.265.468s.1.446.1.744c0 .289-.027.545-.082.77a1.747 1.747 0 0 1-.235.564 1.04 1.04 0 0 1-.371.349c-.145.08-.31.119-.492.119s-.344-.036-.487-.108a.955.955 0 0 1-.349-.303c-.09-.13-.147-.28-.173-.452h.387c.035.15.104.272.208.37a.587.587 0 0 0 .414.144c.25 0 .448-.11.593-.328.146-.22.219-.529.219-.928h-.025a.996.996 0 0 1-.211.23.932.932 0 0 1-.589.201.988.988 0 0 1-.512-.138 1.047 1.047 0 0 1-.371-.382 1.115 1.115 0 0 1-.138-.558c0-.2.044-.381.133-.546a1.03 1.03 0 0 1 .377-.397 1.06 1.06 0 0 1 .575-.142Zm0 .349a.667.667 0 0 0-.36.1.72.72 0 0 0-.253.266.75.75 0 0 0-.091.37c0 .135.03.258.088.37a.667.667 0 0 0 .603.36.675.675 0 0 0 .508-.223.79.79 0 0 0 .153-.236.727.727 0 0 0-.037-.634.73.73 0 0 0-.25-.27.648.648 0 0 0-.361-.103ZM29.517 65.353v3.248h-.394v-2.835h-.019l-.793.526v-.4l.812-.539h.394ZM31.485 65.309c.133 0 .266.026.4.076.133.05.254.132.364.247.11.114.199.27.265.468.067.198.1.446.1.744 0 .289-.027.545-.082.77a1.747 1.747 0 0 1-.235.564 1.04 1.04 0 0 1-.371.349c-.145.08-.309.119-.492.119-.182 0-.344-.036-.487-.108a.955.955 0 0 1-.349-.303c-.09-.13-.147-.28-.173-.452h.387c.035.15.105.272.208.37a.588.588 0 0 0 .414.144c.25 0 .448-.11.593-.328.146-.22.22-.529.22-.928h-.026a.996.996 0 0 1-.211.23.929.929 0 0 1-.588.201.987.987 0 0 1-.513-.138 1.047 1.047 0 0 1-.371-.382 1.115 1.115 0 0 1-.138-.558c0-.2.045-.381.133-.546a1.03 1.03 0 0 1 .378-.397 1.06 1.06 0 0 1 .574-.142Zm0 .349a.666.666 0 0 0-.36.1.719.719 0 0 0-.252.266.752.752 0 0 0-.092.37c0 .135.03.258.088.37a.666.666 0 0 0 .603.36.675.675 0 0 0 .508-.223.792.792 0 0 0 .154-.236.727.727 0 0 0-.037-.634.73.73 0 0 0-.25-.27.648.648 0 0 0-.362-.103Z" fill="#8E9193"/></g><defs><clipPath id="dla"><path fill="#fff" d="M0 0h226.128v72H0z"/></clipPath></defs></svg>